#!OML:ASF \\sashay\E\basketball\basketball\Project 1\Capture day 1\Session 1\Subject.ASF
:FULLY-SPECIFIED
:DEGREES
143
root 8.08751 14.3324 -15.5463 -164.342 36.0775 180.268
lowerback 24.1639 -0.855642 -8.94179
upperback 10.2288 -1.47115 -0.303108
thorax -1.76422 -0.343534 5.10567
lowerneck -8.30001 -5.17275 -13.8717
upperneck -10.4483 -3.5607 26.4149
head -0.542892 -1.11933 10.7435
rclavicle -7.71285e-014 8.50798e-014
rhumerus -27.1067 -23.9446 -73.4814
rradius 35.5995
rwrist -4.77605
rhand -36.1792 44.7404
rfingers 7.12502
rthumb -9.28271 14.9647
lclavicle -7.71285e-014 8.50798e-014
lhumerus -9.92309 18.5561 76.401
lradius 49.2561
lwrist 23.8855
lhand -21.3444 29.5087
lfingers 7.12502
lthumb 5.04179 59.4287
rfemur -44.7185 -10.9523 37.047
rtibia 64.1294
rfoot -28.6684 -9.90069
rtoes -28.1759
lfemur -1.61914 13.7843 -9.528
ltibia 81.2253
lfoot -4.67278 5.65997
ltoes -17.6358
144
root 8.30544 14.3528 -15.8174 -163.929 36.3723 180.475
lowerback 23.8197 -0.79447 -8.37915
upperback 10.1747 -1.27257 -0.130561
thorax -1.71614 -0.249462 4.92052
lowerneck -8.19165 -5.31307 -13.5246
upperneck -10.6731 -3.79551 25.9431
head -0.609326 -1.26807 10.4953
rclavicle -2.46493e-014 6.20208e-014
rhumerus -26.8407 -24.1922 -73.5672
rradius 35.2566
rwrist -4.47797
rhand -36.1955 43.3825
rfingers 7.12502
rthumb -9.29844 13.6076
lclavicle -2.46493e-014 6.20208e-014
lhumerus -12.4119 18.0431 76.2395
lradius 52.7785
lwrist 26.8337
lhand -21.1458 30.0543
lfingers 7.12502
lthumb 5.23361 59.9697
rfemur -43.3037 -10.9274 36.9695
rtibia 63.8977
rfoot -29.4651 -9.43856
rtoes -25.6287
lfemur -4.77638 13.6493 -9.66534
ltibia 84.0456
lfoot -5.29248 5.5536
ltoes -16.1874
145
root 8.52863 14.3908 -16.09 -163.561 36.6377 180.774
lowerback 23.579 -0.677276 -7.92612
upperback 10.1259 -1.02743 0.141384
thorax -1.70581 -0.134305 4.89713
lowerneck -7.99233 -5.51454 -13.2755
upperneck -10.7767 -4.14874 25.5973
head -0.626572 -1.4807 10.3053
rclavicle 7.95139e-016 2.3059e-014
rhumerus -26.6238 -23.957 -73.6704
rradius 35.3155
rwrist -5.20121
rhand -35.9259 42.3897
rfingers 7.12502
rthumb -9.0383 12.6033
lclavicle 7.95139e-016 2.3059e-014
lhumerus -14.4707 18.483 76.6328
lradius 55.8989
lwrist 29.2828
lhand -21.1516 30.0722
lfingers 7.12502
lthumb 5.22797 59.9877
rfemur -41.554 -11.1948 37.0254
rtibia 63.2948
rfoot -29.9561 -9.40545
rtoes -24.8454
lfemur -7.9395 13.1882 -9.89833
ltibia 86.3946
lfoot -5.86335 5.54133
ltoes -16.3895
146
root 8.75425 14.4389 -16.363 -163.286 36.9518 180.909
lowerback 23.3565 -0.516977 -7.36181
upperback 10.0168 -0.724473 0.160412
thorax -1.7876 0.0235502 4.52161
lowerneck -7.50732 -5.92844 -12.9473
upperneck -10.9867 -4.78408 25.6631
head -0.647868 -1.85738 10.2392
rclavicle -7.07673e-014 1.59028e-014
rhumerus -26.9418 -23.7596 -74.0779
rradius 36.0578
rwrist -6.22885
rhand -35.4266 41.6266
rfingers 7.12502
rthumb -8.55651 11.8199
lclavicle -7.07673e-014 1.59028e-014
lhumerus -16.0474 19.3602 77.0187
lradius 58.4435
lwrist 30.8492
lhand -20.2016 29.6572
lfingers 7.12502
lthumb 6.14515 59.5481
rfemur -39.6185 -11.574 36.9646
rtibia 62.4037
rfoot -30.012 -10.185
rtoes -27.8664
lfemur -11.2462 12.6106 -10.3909
ltibia 88.3034
lfoot -6.35672 5.6138
ltoes -18.697
147
root 8.97543 14.4869 -16.6358 -163.136 37.2286 180.947
lowerback 23.2182 -0.444868 -6.63296
upperback 9.89303 -0.513759 -0.0359129
thorax -1.918 0.149076 3.84194
lowerneck -6.90767 -6.31874 -13.1774
upperneck -11.7459 -5.18065 26.309
head -0.835254 -2.10551 10.5226
rclavicle 5.24792e-014 -3.73715e-014
rhumerus -27.5228 -23.264 -74.8976
rradius 37.3341
rwrist -7.03086
rhand -34.8432 40.9577
rfingers 7.12502
rthumb -7.99343 11.1289
lclavicle 5.24792e-014 -3.73715e-014
lhumerus -17.8939 19.8589 77.0126
lradius 61.4748
lwrist 32.6578
lhand -18.7341 29.4099
lfingers 7.12502
lthumb 7.56182 59.2547
rfemur -37.5661 -11.9671 36.6813
rtibia 61.3379
rfoot -30.1602 -9.94691
rtoes -29.506
lfemur -14.5196 11.7605 -11.0358
ltibia 89.82
lfoot -7.09816 5.75399
ltoes -20.039
